<svg xmlns="http://www.w3.org/2000/svg" id="Layer_1" data-name="Layer 1" width="80" height="79.42" viewBox="0 0 80 79.42"><defs><style>.cls-1{fill:#7dd4db;}.cls-2{fill:#00adbb;}.cls-3{fill:#017070;}.cls-4{fill:#13294b;}.cls-5{fill:#d7dcf0;}</style></defs><path class="cls-1" d="M77.76,19.93v41.2a16.37,16.37,0,0,1-.08,1.72l-1.12-1.26a29.1,29.1,0,0,0-2.29-2.29l0,0L69.1,54.14,19.65,4.75l-3-3h0l1.64-.08h41.2A18.34,18.34,0,0,1,72.86,7.48a18.13,18.13,0,0,1,4.28,7.72A18.39,18.39,0,0,1,77.76,19.93Z"></path><path class="cls-2" d="M77.76,60.85v.28a16.37,16.37,0,0,1-.08,1.72,18.3,18.3,0,0,1-18.2,16.57H18.28A18.3,18.3,0,0,1,0,61.13V19.93A18.3,18.3,0,0,1,16.62,1.73h0c.54-.05,1.09-.08,1.64-.08h.28l.33.34.05.16c0,.16.32,1.05.71,2.6,1.7,6.7,5.86,25.8,6,53.16a75.83,75.83,0,0,1,17-5.95c10.28-2.2,19.28-1.44,26.46,2.18a28,28,0,0,1,6.09,4.14l0,0Z"></path><path class="cls-3" d="M77.76,60.85C59,44.08,24.93,59,24.93,59c0-34.73-6.27-57-6.37-57.39Z"></path><path class="cls-4" d="M56.19,20.51,74.08.7a2.13,2.13,0,0,1,3-.15l2.21,2a2.12,2.12,0,0,1,.15,3L61.55,25.36l-.21.12L55,29,53.2,30a.58.58,0,0,1-.81-.74l.83-1.92,2.87-6.64Z"></path><path class="cls-2" d="M72.34,2.64,74.08.7a2.13,2.13,0,0,1,3-.15l2.21,2a2.12,2.12,0,0,1,.15,3L77.7,7.48Z"></path><rect class="cls-5" x="73.11" y="2.29" width="2.29" height="7.23" transform="translate(20.1 57.05) rotate(-47.91)"></rect><path class="cls-5" d="M61.34,25.48,55,29h0L53.2,30a.58.58,0,0,1-.81-.74l.83-1.92h0l2.87-6.63c.73.39,1.44-.58,2.2,0s0,1.59.63,2.18,1.55-.3,2.22.4S60.88,24.79,61.34,25.48Z"></path><path class="cls-4" d="M55,29h0L53.2,30a.58.58,0,0,1-.81-.74l.83-1.92h0A3,3,0,0,1,55,29Z"></path></svg>