<svg xmlns="http://www.w3.org/2000/svg" id="Layer_1" data-name="Layer 1" width="80" height="72.09" viewBox="0 0 80 72.09"><defs><style>.cls-1{fill:#00adbb;}.cls-2{fill:#4ec6c6;}</style></defs><circle class="cls-1" cx="40" cy="6.97" r="6.97"></circle><circle class="cls-1" cx="6.97" cy="64.13" r="6.97"></circle><circle class="cls-1" cx="73.03" cy="64.13" r="6.97"></circle><path class="cls-1" d="M67.87,45.16A27.91,27.91,0,0,1,48,71.87a4.94,4.94,0,0,1-6.32-4.64h0A5.09,5.09,0,0,1,44.13,63,25.11,25.11,0,0,0,64.9,38.19a15.54,15.54,0,0,0-.13-2.45,5.11,5.11,0,0,1,2.2,3.1A20.38,20.38,0,0,1,67.87,45.16Z"></path><path class="cls-2" d="M65.16,38.19A25.23,25.23,0,0,1,44.39,63c.26-.13.64-.26.9-.39a18.08,18.08,0,0,0,12.9-17.42A14.76,14.76,0,0,0,57.68,41,4.84,4.84,0,0,1,60,35.74h0a5,5,0,0,1,5,.13C65,36.52,65.16,37.29,65.16,38.19Z"></path><path class="cls-1" d="M26.06,20.9a28,28,0,0,1,33,3.75,4.87,4.87,0,0,1-.91,7.74h0a4.78,4.78,0,0,1-4.9,0,25.09,25.09,0,0,0-31.87-5.68c-.65.39-1.42.9-2.07,1.29a4.34,4.34,0,0,1,1.55-3.35A40.32,40.32,0,0,1,26.06,20.9Z"></path><path class="cls-2" d="M21.42,26.84a25.12,25.12,0,0,1,31.87,5.68,3.21,3.21,0,0,1-.77-.65A18.26,18.26,0,0,0,31,29.42a22.88,22.88,0,0,0-3.36,2.45,5,5,0,0,1-5.8.65h0a4.93,4.93,0,0,1-2.46-4.39C20,27.74,20.65,27.23,21.42,26.84Z"></path><path class="cls-1" d="M26.06,69.29A28,28,0,0,1,12.77,38.71,4.88,4.88,0,0,1,20,35.61h0a5,5,0,0,1,2.45,4.26,25.22,25.22,0,0,0,11,30.45c.64.39,1.42.78,2.19,1.16a4.64,4.64,0,0,1-3.74.39A33.32,33.32,0,0,1,26.06,69.29Z"></path><path class="cls-2" d="M33.42,70.32a25,25,0,0,1-11-30.45,2.78,2.78,0,0,1-.13,1A18.17,18.17,0,0,0,31,60.77a16.64,16.64,0,0,0,3.87,1.68,4.85,4.85,0,0,1,3.48,4.65h0a4.63,4.63,0,0,1-2.58,4.25A11.92,11.92,0,0,1,33.42,70.32Z"></path><rect class="cls-1" x="35.72" y="42.27" width="8.65" height="8.65" transform="translate(-21.22 41.96) rotate(-45)"></rect><circle class="cls-1" cx="36.9" cy="43.61" r="4.26"></circle><circle class="cls-2" cx="42.97" cy="43.61" r="4.26"></circle></svg>