<svg xmlns="http://www.w3.org/2000/svg" xmlns:xlink="http://www.w3.org/1999/xlink" id="Layer_1" x="0px" y="0px" viewBox="0 0 500 500" style="enable-background:new 0 0 500 500;" xml:space="preserve"><style type="text/css">	.st0{fill:#00ADBB;}</style><path class="st0" d="M394.6,49.9c-0.9,0-1.8,0-2.7,0.1L109,60.8c-18.5,0-33.5,15-33.5,33.5c0,18.3,14.7,33.1,32.9,33.4l0,0  l286.2,1.4c21.9,0,39.6-17.7,39.6-39.6C434.2,67.6,416.4,49.9,394.6,49.9z"></path><path class="st0" d="M115.1,289.6c0.9,0,1.8,0,2.7-0.1l282.9-10.8c18.5,0,33.5-15,33.5-33.5c0-18.3-14.7-33.1-32.9-33.4l0,0  l-286.2-1.4c-21.9,0-39.6,17.7-39.6,39.6C75.5,271.9,93.2,289.6,115.1,289.6z"></path><path class="st0" d="M394.6,361c-0.9,0-1.8,0-2.7,0.1L109,371.9c-18.5,0-33.5,15-33.5,33.5c0,18.3,14.7,33.1,32.9,33.4l0,0  l286.2,1.4c21.9,0,39.6-17.7,39.6-39.6C434.2,378.7,416.4,361,394.6,361z"></path></svg>